<svg height="512pt" viewBox="0 0 512 512" width="512pt" xmlns="http://www.w3.org/2000/svg"><path d="m512 256c0 141.386719-114.613281 256-256 256s-256-114.613281-256-256 114.613281-256 256-256 256 114.613281 256 256zm0 0" fill="#ff3c62"/><path d="m512 256c0-19.824219-2.253906-39.121094-6.519531-57.652344l-88.015625-88.015625h-34.527344l-31.441406-32.445312h-30v32.445312h-100.339844l-30.65625-32.445312h-30v32.445312h-65.96875v295.371094l98.480469 98.476563c20.152343 5.101562 41.25 7.820312 62.988281 7.820312 141.386719 0 256-114.613281 256-256zm0 0" fill="#c2001b"/><path d="m94.53125 172.949219h322.933594v232.753906h-322.933594zm0 0" fill="#fff"/><path d="m256 172.949219h161.46875v232.75h-161.46875zm0 0" fill="#fff5cb"/><path d="m225.777344 272.308594c3.449218.667968 6.621094 1.867187 9.515625 3.589844 2.890625 1.726562 5.367187 3.898437 7.425781 6.511718 2.058594 2.613282 3.644531 5.617188 4.757812 9.011719 1.113282 3.398437 1.667969 7.039063 1.667969 10.933594 0 5.230469-1.058593 9.929687-3.171875 14.105469-2.113281 4.171874-5.148437 7.730468-9.09375 10.683593-3.953125 2.945313-8.710937 5.226563-14.273437 6.84375-5.566407 1.609375-11.796875 2.417969-18.695313 2.417969-16.914062 0-30.15625-4.953125-39.726562-14.855469l14.355468-19.027343c3.003907 3.117187 6.425782 5.480468 10.265626 7.09375 3.839843 1.613281 8.429687 2.417968 13.769531 2.417968 12.574219 0 18.863281-4.613281 18.863281-13.851562 0-5.007813-1.863281-8.789063-5.589844-11.351563-3.730468-2.558593-9.601562-3.839843-17.613281-3.839843h-5.003906v-19.195313h5.507812c6.230469 0 11.097657-1.277344 14.605469-3.835937 3.503906-2.5625 5.257812-5.953126 5.257812-10.183594 0-3.671875-1.28125-6.453125-3.839843-8.347656-2.5625-1.890626-5.953125-2.835938-10.183594-2.835938-4.5625 0-8.707031 1.085938-12.433594 3.253906-3.730469 2.167969-6.875 5.257813-9.433593 9.261719l-16.859376-19.363281c1.78125-2.335938 4.117188-4.503906 7.011719-6.507813 2.894531-2.003906 6.175781-3.699219 9.847657-5.089843 3.671874-1.390626 7.621093-2.476563 11.851562-3.257813 4.230469-.777344 8.570312-1.167969 13.019531-1.167969 5.898438 0 11.296875.699219 16.191407 2.085938 4.898437 1.394531 9.070312 3.398437 12.519531 6.011718 3.449219 2.613282 6.117187 5.730469 8.011719 9.347657 1.890624 3.617187 2.839843 7.652343 2.839843 12.101562 0 3.335938-.53125 6.507813-1.585937 9.511719-1.0625 3.003906-2.535156 5.734375-4.425782 8.179688-1.894531 2.449218-4.148437 4.480468-6.761718 6.09375-2.613282 1.613281-5.480469 2.699218-8.59375 3.253906zm0 0" fill="#57555c"/><path d="m347.8125 302.960938v27.371093h-82.117188v-27.371093h26.992188v-48.472657c-1.136719 1.523438-2.914062 3.074219-5.320312 4.660157-2.410157 1.585937-5.101563 3.039062-8.082032 4.371093-2.976562 1.332031-6.019531 2.410157-9.121094 3.230469-3.109374.824219-5.863281 1.234375-8.269531 1.234375v-28.132813c2.027344 0 4.65625-.695312 7.886719-2.089843 3.234375-1.390625 6.433594-3.070313 9.601562-5.035157 3.167969-1.964843 6.015626-3.960937 8.554688-5.988281 2.53125-2.023437 4.113281-3.671875 4.75-4.941406h30.984375v81.164063zm0 0" fill="#171719"/><path d="m94.53125 110.332031h322.933594v67h-322.933594zm0 0" fill="#00e8f2"/><path d="m256 110.328125h161.46875v67h-161.46875zm0 0" fill="#00b7be"/><path d="m160.5 77.886719h30v64.890625h-30zm0 0" fill="#fff"/><path d="m321.5 77.886719h30v64.890625h-30zm0 0" fill="#fff5cb"/><path d="m94.53125 375.703125h322.933594v30h-322.933594zm0 0" fill="#fff5cb"/><path d="m256 375.699219h161.46875v30h-161.46875zm0 0" fill="#ffe670"/></svg>